<svg xmlns="http://www.w3.org/2000/svg" width="61" height="103.563" viewBox="0 0 61 103.563">
  <g id="Group_47" data-name="Group 47" transform="translate(-185 -516)">
    <path id="tint-solid" d="M32.305,3.438l-2.2,2.636s-5.623,6.777-11.335,15.2a117.185,117.185,0,0,0-8,13.268C8.582,38.99,7,43.252,7,47.195a25.305,25.305,0,1,0,50.611,0c0-3.943-1.582-8.2-3.778-12.653a117.206,117.206,0,0,0-8-13.268C40.126,12.85,34.5,6.073,34.5,6.073Zm0,9.05a147.954,147.954,0,0,1,8.962,11.95A110.988,110.988,0,0,1,48.736,37.09c2.021,4.086,3.251,7.864,3.251,10.1a19.682,19.682,0,1,1-39.364,0c0-2.241,1.23-6.019,3.251-10.1a110.943,110.943,0,0,1,7.468-12.653A147.954,147.954,0,0,1,32.305,12.488ZM18.247,47.195A14.114,14.114,0,0,0,32.305,61.253V55.63a8.437,8.437,0,0,1-8.435-8.435Z" transform="translate(183 547.063)" fill="#428cff"/>
    <text id="Wadoor" transform="translate(185 544)" fill="#428cff" font-size="33" font-family="FreestyleScript-Regular, Freestyle Script"><tspan x="0" y="0">Wadoor</tspan></text>
  </g>
</svg>
